<svg width="19" height="19" viewBox="0 0 19 19" fill="none" xmlns="http://www.w3.org/2000/svg">
<path d="M3.47308 10.8536L8.89869 15.9504C9.05726 16.0993 9.13654 16.1738 9.22612 16.204C9.3158 16.2341 9.4129 16.2341 9.50258 16.204C9.59215 16.1738 9.67144 16.0993 9.83 15.9504L15.2556 10.8536C16.7822 9.41956 16.9675 7.05973 15.6836 5.40493L15.4422 5.09377C13.9063 3.11416 10.8234 3.44615 9.74413 5.70738C9.59168 6.02679 9.13701 6.02679 8.98457 5.70738C7.90534 3.44615 4.82238 3.11416 3.28647 5.09377L3.04506 5.40492C1.76116 7.05972 1.94654 9.41956 3.47308 10.8536Z" stroke="#BBBBBB" stroke-width="1.62317"/>
</svg>
