<svg xmlns="http://www.w3.org/2000/svg" width="21" height="21" viewBox="0 0 21 21"><g><g><g/><g><g><path fill="#fff" d="M6.537.928C7.563.88 7.89.87 10.505.87s2.942.011 3.967.058c1.026.046 1.726.21 2.338.447a4.736 4.736 0 0 1 1.705 1.111c.49.48.868 1.061 1.11 1.704.237.612.4 1.312.447 2.336.047 1.028.058 1.355.058 3.969 0 2.615-.011 2.942-.058 3.968-.046 1.024-.21 1.724-.448 2.336a4.724 4.724 0 0 1-1.11 1.706 4.72 4.72 0 0 1-1.704 1.11c-.612.237-1.312.4-2.336.447-1.027.047-1.355.058-3.969.058-2.615 0-2.942-.011-3.968-.058-1.024-.046-1.724-.21-2.336-.448a4.724 4.724 0 0 1-1.706-1.11 4.719 4.719 0 0 1-1.11-1.704c-.237-.612-.4-1.312-.447-2.336C.89 13.436.88 13.109.88 10.495s.011-2.942.058-3.967c.046-1.026.21-1.726.447-2.338a4.722 4.722 0 0 1 1.111-1.705A4.718 4.718 0 0 1 4.2 1.375c.612-.237 1.312-.4 2.336-.447zm7.857 1.732c-1.015-.046-1.32-.056-3.889-.056-2.57 0-2.874.01-3.89.056-.938.043-1.448.2-1.787.332-.449.175-.77.382-1.107.72-.32.31-.565.688-.72 1.106-.131.34-.288.849-.33 1.788-.047 1.015-.057 1.32-.057 3.889 0 2.57.01 2.874.056 3.89.043.938.2 1.447.332 1.787.154.417.4.796.72 1.107.31.32.689.565 1.106.72.34.131.849.288 1.788.33 1.015.047 1.318.057 3.889.057 2.57 0 2.874-.01 3.89-.056.938-.043 1.447-.2 1.787-.332.449-.175.77-.382 1.107-.72.32-.31.565-.689.72-1.106.131-.34.288-.849.33-1.788.047-1.015.057-1.32.057-3.889 0-2.57-.01-2.874-.056-3.89-.043-.938-.2-1.447-.332-1.787a2.988 2.988 0 0 0-.72-1.107 2.986 2.986 0 0 0-1.106-.72c-.34-.131-.849-.288-1.788-.33zM9.276 13.462a3.21 3.21 0 1 0 2.31-5.99 3.211 3.211 0 0 0-2.31 5.99zm-2.27-6.465a4.947 4.947 0 1 1 6.997 6.996 4.947 4.947 0 0 1-6.996-6.996zm9.543-.712a1.17 1.17 0 1 1-1.605-1.703 1.17 1.17 0 0 1 1.605 1.702z"/></g></g></g></g></svg>