<svg xmlns="http://www.w3.org/2000/svg" width="167" height="37" viewBox="0 0 167 37"><g><g><g/><g><path fill="#3d8f07" d="M28.133 19.88v7.878l-15.38 8.752v-7.502z"/></g><g><path fill="#3d8f07" d="M8.502 36.51L0 29.883V6.002L11.503 0l16.63 9.503-1.876 4.126-3.75 2.5L8.501 7.877z"/></g><g/><g><path fill="#e88b00" d="M28.13 20.378l-15.38 8.877v-7.502l9.753-5.751c1.583-.959 4.376-3.876 5.626-6.502z"/></g><g><path fill="#fff" d="M48.283 28.01l-3.631-6.326h-2.09v6.326H38.16V8.755h7.702c1.834 0 3.393.642 4.676 1.926 1.284 1.283 1.926 2.842 1.926 4.676 0 1.174-.33 2.265-.99 3.273a6.615 6.615 0 0 1-2.558 2.31l4.098 7.07zM42.56 12.881v4.952h3.301c.605 0 1.119-.239 1.54-.716.44-.476.66-1.063.66-1.76 0-.697-.22-1.284-.66-1.76-.421-.477-.935-.716-1.54-.716zm16.924 10.893h7.702v4.236H55.084V8.755h11.965v4.236h-7.564v3.191h6.877v4.181h-6.877zm19.238 4.621c-2.879 0-5.272-.953-7.18-2.86-1.888-1.926-2.832-4.31-2.832-7.152 0-2.843.944-5.218 2.833-7.125 1.907-1.925 4.3-2.888 7.18-2.888 1.723 0 3.319.403 4.786 1.21 1.467.789 2.622 1.87 3.466 3.246l-3.797 2.2a4.25 4.25 0 0 0-1.815-1.732c-.789-.422-1.669-.633-2.64-.633-1.706 0-3.072.523-4.1 1.568-1.008 1.045-1.512 2.43-1.512 4.154 0 1.724.504 3.108 1.513 4.153 1.027 1.046 2.393 1.568 4.098 1.568.972 0 1.852-.21 2.641-.632.807-.422 1.412-1 1.815-1.733l3.797 2.2c-.826 1.376-1.972 2.467-3.439 3.274-1.467.788-3.072 1.183-4.814 1.183zm25.565-19.64l-6.465 11.856v7.4h-4.4v-7.4L86.957 8.755h5.006l3.659 7.427 3.658-7.427zm9.465 19.64c-2.88 0-5.273-.953-7.18-2.86-1.889-1.926-2.833-4.31-2.833-7.152 0-2.843.944-5.218 2.833-7.125 1.907-1.925 4.3-2.888 7.18-2.888 1.723 0 3.319.403 4.786 1.21 1.467.789 2.622 1.87 3.466 3.246l-3.796 2.2a4.25 4.25 0 0 0-1.816-1.732c-.788-.422-1.669-.633-2.64-.633-1.706 0-3.072.523-4.1 1.568-1.008 1.045-1.512 2.43-1.512 4.154 0 1.724.504 3.108 1.513 4.153 1.027 1.046 2.393 1.568 4.099 1.568.971 0 1.852-.21 2.64-.632.807-.422 1.412-1 1.816-1.733l3.796 2.2c-.825 1.376-1.972 2.467-3.439 3.274-1.467.788-3.071 1.183-4.814 1.183zm14.716-4.62h6.877v4.235h-11.279V8.755h4.402zm13.216 0h7.702v4.235h-12.103V8.755h11.966v4.236h-7.565v3.191h6.877v4.181h-6.877zM167 28.01h-5.007l-3.246-5.556-3.246 5.556h-5.006l5.749-9.875-5.474-9.38h5.006l2.971 5.089 2.971-5.089h5.006l-5.474 9.38z"/></g></g></g></svg>