<svg xmlns="http://www.w3.org/2000/svg" width="39" height="37" viewBox="0 0 39 37"><defs><clipPath id="uasfa"><path fill="#fff" d="M22.16 19.64c0 1.448-1.434 2.622-3.205 2.622-1.77 0-3.205-1.174-3.205-2.623V15.05h6.41v4.59z"/></clipPath><clipPath id="uasfb"><path fill="#fff" d="M2.93 16.242c0-1.448 1.435-2.622 3.205-2.622s3.205 1.174 3.205 2.622v4.59H2.93v-4.59z"/></clipPath><clipPath id="uasfc"><path fill="#fff" d="M35.52 32.02c0 1.448-1.434 2.622-3.205 2.622-1.77 0-3.205-1.174-3.205-2.623V27.43h6.41v4.59z"/></clipPath><clipPath id="uasfd"><path fill="#fff" d="M16.95 29.292c0-1.448 1.435-2.622 3.205-2.622s3.205 1.174 3.205 2.622v4.59h-6.41v-4.59z"/></clipPath><clipPath id="uasfe"><path fill="#fff" d="M11.35 30.46c0 1.448-1.434 2.622-3.205 2.622-1.77 0-3.205-1.174-3.205-2.623V25.87h6.41v4.59z"/></clipPath><clipPath id="uasff"><path fill="#fff" d="M30.63 18.932c0-1.448 1.435-2.622 3.205-2.622s3.205 1.174 3.205 2.622v4.59h-6.41v-4.59z"/></clipPath><clipPath id="uasfg"><path fill="#fff" d="M30.42 3.552c0-1.448 1.435-2.622 3.205-2.622s3.205 1.174 3.205 2.622v4.59h-6.41v-4.59z"/></clipPath><clipPath id="uasfh"><path fill="#fff" d="M12.95 8.82c0 1.448-1.434 2.622-3.205 2.622-1.77 0-3.205-1.174-3.205-2.623V4.23h6.41v4.59z"/></clipPath><clipPath id="uasfi"><path fill="#fff" d="M18.16 7.252c0-1.448 1.435-2.622 3.205-2.622s3.205 1.174 3.205 2.622v4.59h-6.41v-4.59z"/></clipPath><clipPath id="uasfj"><path fill="#fff" d="M25.77 18.654c0 1.328-1.434 2.404-3.205 2.404-1.77 0-3.205-1.076-3.205-2.404 0-1.328 1.435-2.404 3.205-2.404s3.206 1.076 3.206 2.404z"/></clipPath><clipPath id="uasfk"><path fill="#fff" d="M-.19 15.424c0-1.328 1.435-2.404 3.205-2.404s3.206 1.076 3.206 2.404c0 1.328-1.435 2.404-3.206 2.404-1.77 0-3.205-1.076-3.205-2.404z"/></clipPath><clipPath id="uasfl"><path fill="#fff" d="M38.64 32.834c0 1.328-1.435 2.404-3.205 2.404s-3.205-1.076-3.205-2.404c0-1.328 1.435-2.404 3.205-2.404s3.206 1.076 3.206 2.404z"/></clipPath><clipPath id="uasfm"><path fill="#fff" d="M16.96 33.884c0-1.328 1.435-2.404 3.205-2.404s3.206 1.076 3.206 2.404c0 1.328-1.435 2.404-3.206 2.404-1.77 0-3.205-1.076-3.205-2.404z"/></clipPath><clipPath id="uasfn"><path fill="#fff" d="M11.35 25.864c0 1.328-1.434 2.404-3.205 2.404-1.77 0-3.205-1.076-3.205-2.404 0-1.328 1.435-2.404 3.205-2.404s3.206 1.076 3.206 2.404z"/></clipPath><clipPath id="uasfo"><path fill="#fff" d="M30.63 16.304c0-1.328 1.435-2.404 3.205-2.404s3.206 1.076 3.206 2.404c0 1.328-1.436 2.404-3.206 2.404s-3.205-1.076-3.205-2.404z"/></clipPath><clipPath id="uasfp"><path fill="#fff" d="M29.49 7.994c0-1.328 1.435-2.404 3.205-2.404s3.206 1.076 3.206 2.404c0 1.328-1.436 2.404-3.206 2.404S29.49 9.322 29.49 7.994z"/></clipPath><clipPath id="uasfq"><path fill="#fff" d="M12.95 4.234c0 1.328-1.434 2.404-3.205 2.404-1.77 0-3.205-1.076-3.205-2.404 0-1.328 1.435-2.404 3.205-2.404s3.206 1.076 3.206 2.404z"/></clipPath><clipPath id="uasfr"><path fill="#fff" d="M14.55 8.234c0-1.328 1.435-2.404 3.205-2.404s3.206 1.076 3.206 2.404c0 1.328-1.436 2.404-3.206 2.404S14.55 9.562 14.55 8.234z"/></clipPath></defs><g><g transform="rotate(90 19 18.5)"><path fill="#fff" d="M22.16 19.64c0 1.448-1.434 2.622-3.205 2.622-1.77 0-3.205-1.174-3.205-2.623V15.05h6.41v4.59z"/><path fill="none" stroke="#fc9042" stroke-miterlimit="20" stroke-width="3" d="M22.16 19.64c0 1.448-1.434 2.622-3.205 2.622-1.77 0-3.205-1.174-3.205-2.623V15.05v0h6.41v4.59z" clip-path="url(&quot;#uasfa&quot;)"/></g><g transform="rotate(120 5.5 16.5)"><path fill="#fff" d="M2.93 16.242c0-1.448 1.435-2.622 3.205-2.622s3.205 1.174 3.205 2.622v4.59H2.93v-4.59z"/><path fill="none" stroke="#fc9042" stroke-miterlimit="20" stroke-width="3" d="M2.93 16.242c0-1.448 1.435-2.622 3.205-2.622s3.205 1.174 3.205 2.622v4.59H2.93v-4.59z" clip-path="url(&quot;#uasfb&quot;)"/></g><g transform="rotate(120 32.5 31.5)"><path fill="#fff" d="M35.52 32.02c0 1.448-1.434 2.622-3.205 2.622-1.77 0-3.205-1.174-3.205-2.623V27.43h6.41v4.59z"/><path fill="none" stroke="#fc9042" stroke-miterlimit="20" stroke-width="3" d="M35.52 32.02c0 1.448-1.434 2.622-3.205 2.622-1.77 0-3.205-1.174-3.205-2.623V27.43v0h6.41v4.59z" clip-path="url(&quot;#uasfc&quot;)"/></g><g><path fill="#fff" d="M16.95 29.292c0-1.448 1.435-2.622 3.205-2.622s3.205 1.174 3.205 2.622v4.59h-6.41v-4.59z"/><path fill="none" stroke="#fc9042" stroke-miterlimit="20" stroke-width="3" d="M16.95 29.292c0-1.448 1.435-2.622 3.205-2.622s3.205 1.174 3.205 2.622v4.59h-6.41v-4.59z" clip-path="url(&quot;#uasfd&quot;)"/></g><g><path fill="#fff" d="M11.35 30.46c0 1.448-1.434 2.622-3.205 2.622-1.77 0-3.205-1.174-3.205-2.623V25.87h6.41v4.59z"/><path fill="none" stroke="#fc9042" stroke-miterlimit="20" stroke-width="3" d="M11.35 30.46c0 1.448-1.434 2.622-3.205 2.622-1.77 0-3.205-1.174-3.205-2.623V25.87v0h6.41v4.59z" clip-path="url(&quot;#uasfe&quot;)"/></g><g><path fill="#fff" d="M30.63 18.932c0-1.448 1.435-2.622 3.205-2.622s3.205 1.174 3.205 2.622v4.59h-6.41v-4.59z"/><path fill="none" stroke="#fc9042" stroke-miterlimit="20" stroke-width="3" d="M30.63 18.932c0-1.448 1.435-2.622 3.205-2.622s3.205 1.174 3.205 2.622v4.59h-6.41v-4.59z" clip-path="url(&quot;#uasff&quot;)"/></g><g transform="rotate(15 33.5 4.5)"><path fill="#fff" d="M30.42 3.552c0-1.448 1.435-2.622 3.205-2.622s3.205 1.174 3.205 2.622v4.59h-6.41v-4.59z"/><path fill="none" stroke="#fc9042" stroke-miterlimit="20" stroke-width="3" d="M30.42 3.552c0-1.448 1.435-2.622 3.205-2.622s3.205 1.174 3.205 2.622v4.59h-6.41v-4.59z" clip-path="url(&quot;#uasfg&quot;)"/></g><g><path fill="#fff" d="M12.95 8.82c0 1.448-1.434 2.622-3.205 2.622-1.77 0-3.205-1.174-3.205-2.623V4.23h6.41v4.59z"/><path fill="none" stroke="#fc9042" stroke-miterlimit="20" stroke-width="3" d="M12.95 8.82c0 1.448-1.434 2.622-3.205 2.622-1.77 0-3.205-1.174-3.205-2.623V4.23v0h6.41v4.59z" clip-path="url(&quot;#uasfh&quot;)"/></g><g transform="rotate(90 21 8.5)"><path fill="#fff" d="M18.16 7.252c0-1.448 1.435-2.622 3.205-2.622s3.205 1.174 3.205 2.622v4.59h-6.41v-4.59z"/><path fill="none" stroke="#fc9042" stroke-miterlimit="20" stroke-width="3" d="M18.16 7.252c0-1.448 1.435-2.622 3.205-2.622s3.205 1.174 3.205 2.622v4.59h-6.41v-4.59z" clip-path="url(&quot;#uasfi&quot;)"/></g><g transform="rotate(90 22.5 18.5)"><path fill="#fff" d="M25.77 18.654c0 1.328-1.434 2.404-3.205 2.404-1.77 0-3.205-1.076-3.205-2.404 0-1.328 1.435-2.404 3.205-2.404s3.206 1.076 3.206 2.404z"/><path fill="none" stroke="#fc9042" stroke-miterlimit="20" stroke-width="3" d="M25.77 18.654c0 1.328-1.434 2.404-3.205 2.404-1.77 0-3.205-1.076-3.205-2.404 0-1.328 1.435-2.404 3.205-2.404s3.206 1.076 3.206 2.404z" clip-path="url(&quot;#uasfj&quot;)"/></g><g transform="rotate(120 3 15.5)"><path fill="#fff" d="M-.19 15.424c0-1.328 1.435-2.404 3.205-2.404s3.206 1.076 3.206 2.404c0 1.328-1.435 2.404-3.206 2.404-1.77 0-3.205-1.076-3.205-2.404z"/><path fill="none" stroke="#fc9042" stroke-miterlimit="20" stroke-width="3" d="M-.19 15.424c0-1.328 1.435-2.404 3.205-2.404s3.206 1.076 3.206 2.404c0 1.328-1.435 2.404-3.206 2.404-1.77 0-3.205-1.076-3.205-2.404z" clip-path="url(&quot;#uasfk&quot;)"/></g><g transform="rotate(120 35.5 32.5)"><path fill="#fff" d="M38.64 32.834c0 1.328-1.435 2.404-3.205 2.404s-3.205-1.076-3.205-2.404c0-1.328 1.435-2.404 3.205-2.404s3.206 1.076 3.206 2.404z"/><path fill="none" stroke="#fc9042" stroke-miterlimit="20" stroke-width="3" d="M38.64 32.834c0 1.328-1.435 2.404-3.205 2.404s-3.205-1.076-3.205-2.404c0-1.328 1.435-2.404 3.205-2.404s3.206 1.076 3.206 2.404z" clip-path="url(&quot;#uasfl&quot;)"/></g><g><path fill="#fff" d="M16.96 33.884c0-1.328 1.435-2.404 3.205-2.404s3.206 1.076 3.206 2.404c0 1.328-1.435 2.404-3.206 2.404-1.77 0-3.205-1.076-3.205-2.404z"/><path fill="none" stroke="#fc9042" stroke-miterlimit="20" stroke-width="3" d="M16.96 33.884c0-1.328 1.435-2.404 3.205-2.404s3.206 1.076 3.206 2.404c0 1.328-1.435 2.404-3.206 2.404-1.77 0-3.205-1.076-3.205-2.404z" clip-path="url(&quot;#uasfm&quot;)"/></g><g><path fill="#fff" d="M11.35 25.864c0 1.328-1.434 2.404-3.205 2.404-1.77 0-3.205-1.076-3.205-2.404 0-1.328 1.435-2.404 3.205-2.404s3.206 1.076 3.206 2.404z"/><path fill="none" stroke="#fc9042" stroke-miterlimit="20" stroke-width="3" d="M11.35 25.864c0 1.328-1.434 2.404-3.205 2.404-1.77 0-3.205-1.076-3.205-2.404 0-1.328 1.435-2.404 3.205-2.404s3.206 1.076 3.206 2.404z" clip-path="url(&quot;#uasfn&quot;)"/></g><g><path fill="#fff" d="M30.63 16.304c0-1.328 1.435-2.404 3.205-2.404s3.206 1.076 3.206 2.404c0 1.328-1.436 2.404-3.206 2.404s-3.205-1.076-3.205-2.404z"/><path fill="none" stroke="#fc9042" stroke-miterlimit="20" stroke-width="3" d="M30.63 16.304c0-1.328 1.435-2.404 3.205-2.404s3.206 1.076 3.206 2.404c0 1.328-1.436 2.404-3.206 2.404s-3.205-1.076-3.205-2.404z" clip-path="url(&quot;#uasfo&quot;)"/></g><g transform="rotate(15 32.5 8)"><path fill="#fff" d="M29.49 7.994c0-1.328 1.435-2.404 3.205-2.404s3.206 1.076 3.206 2.404c0 1.328-1.436 2.404-3.206 2.404S29.49 9.322 29.49 7.994z"/><path fill="none" stroke="#fc9042" stroke-miterlimit="20" stroke-width="3" d="M29.49 7.994c0-1.328 1.435-2.404 3.205-2.404s3.206 1.076 3.206 2.404c0 1.328-1.436 2.404-3.206 2.404S29.49 9.322 29.49 7.994z" clip-path="url(&quot;#uasfp&quot;)"/></g><g><path fill="#fff" d="M12.95 4.234c0 1.328-1.434 2.404-3.205 2.404-1.77 0-3.205-1.076-3.205-2.404 0-1.328 1.435-2.404 3.205-2.404s3.206 1.076 3.206 2.404z"/><path fill="none" stroke="#fc9042" stroke-miterlimit="20" stroke-width="3" d="M12.95 4.234c0 1.328-1.434 2.404-3.205 2.404-1.77 0-3.205-1.076-3.205-2.404 0-1.328 1.435-2.404 3.205-2.404s3.206 1.076 3.206 2.404z" clip-path="url(&quot;#uasfq&quot;)"/></g><g transform="rotate(90 18 8.5)"><path fill="#fff" d="M14.55 8.234c0-1.328 1.435-2.404 3.205-2.404s3.206 1.076 3.206 2.404c0 1.328-1.436 2.404-3.206 2.404S14.55 9.562 14.55 8.234z"/><path fill="none" stroke="#fc9042" stroke-miterlimit="20" stroke-width="3" d="M14.55 8.234c0-1.328 1.435-2.404 3.205-2.404s3.206 1.076 3.206 2.404c0 1.328-1.436 2.404-3.206 2.404S14.55 9.562 14.55 8.234z" clip-path="url(&quot;#uasfr&quot;)"/></g></g></svg>