<svg xmlns="http://www.w3.org/2000/svg" width="37" height="37" viewBox="0 0 37 37"><g><g><path fill="#fc9042" d="M36.207 13.492c.068.184.126.371.172.562.09.105.122 8.38.086 8.457a21.883 21.883 0 0 1-.296 2.34l-.233 1.283a13.705 13.705 0 0 0 .394 6.495l.044.143a3.15 3.15 0 0 1 .093.753 3.157 3.157 0 0 1-3.16 3.154h-5.655a3.135 3.135 0 0 1-1.252-.257c-.31.17-.657.258-1.009.257h-6.619c-.2 0-.4-.029-.593-.086a.6.6 0 0 1-.31.086H2.076A1.656 1.656 0 0 1 .42 35.027V12.489a2.258 2.258 0 0 1 2.256-2.253h2.859a2.107 2.107 0 0 1 2.106 2.103v5.109h6.017v-4.959a2.258 2.258 0 0 1 2.256-2.253h1.956c.332 0 .601.269.601.6v3.812l.848-1.524a.599.599 0 0 1-.246-.484V9.635c0-.664.54-1.201 1.203-1.202h3.61c.665 0 1.203.538 1.204 1.202v3.005a.6.6 0 0 1-.014.13l2.776-7.395a.601.601 0 0 1-.355-.548V1.22c0-.332.27-.601.602-.601h4.813c.333 0 .602.27.602.601v3.606a.6.6 0 0 1-.355.548zM28.7 4.226h3.61V1.822H28.7zm-2.742 9.616h9.095l-3.16-8.414h-2.776zm-5.681-1.803h3.61V9.635h-3.61zm-9.76 9.015l-.3 1.202h8.085l-.3-1.202zm-1.071 2.404v1.202h9.627v-1.202zm-4.212-6.01h1.203v-5.109a.903.903 0 0 0-.902-.901h-.301zm4.743 18.03l-1.07-9.617h-.063a.601.601 0 0 1-.602-.6v-2.404c0-.332.27-.601.602-.601h.132l.488-1.95a.602.602 0 0 1 .583-.454h7.22v-8.414h-1.353c-.581 0-1.052.47-1.053 1.052v4.958c0 .663-.54 1.2-1.203 1.202H5.234a1.204 1.204 0 0 1-1.204-1.202v-6.01H2.676c-.58 0-1.052.47-1.053 1.052v22.537c0 .248.203.45.452.45zM18.4 25.86h-8.283l1.07 9.616h6.143zm7.893 6.16a.15.15 0 0 0-.15-.15h-7.201l-.398 3.577c.074.02.15.03.227.03h6.619a.903.903 0 0 0 .903-.902zm0-3.605a.15.15 0 0 0-.15-.15h-6.8l-.267 2.403h7.066a.15.15 0 0 0 .15-.15zm0-3.606a.15.15 0 0 0-.15-.15h-5.867v.6c0 .332-.27.601-.602.601h-.063l-.134 1.202h6.665a.15.15 0 0 0 .15-.15zm0-3.606a.15.15 0 0 0-.15-.15h-6.902l.3 1.202h.133c.332 0 .602.269.602.6v.602h5.866a.15.15 0 0 0 .15-.15zm-.15-1.352a.15.15 0 0 0 .15-.15c-.001-.982-.251-1.948-.728-2.806l-2.033-3.655H20.63l-2.033 3.655c-.044.079-.085.16-.126.241v2.715zm9.074 13.253l-.038-.12a14.908 14.908 0 0 1-.428-7.066l.233-1.283c.107-.588.188-1.183.244-1.78h-7.732v.451c0 .268-.08.53-.229.752.15.222.23.483.229.75v2.104c0 .268-.08.53-.229.751.15.223.23.484.229.752v2.103c0 .268-.08.53-.229.751.15.223.23.484.229.752v2.554c0 .3-.065.598-.19.871.114.02.23.03.345.03h5.656c.596.002 1.16-.27 1.53-.737a1.94 1.94 0 0 0 .38-1.635zm.087-11.45c.009-.24.012-6.548.009-6.611h-9.402l.706 1.268a6.989 6.989 0 0 1 .879 3.39c0 .267-.08.529-.229.75.15.223.23.484.229.752v.45zm-23.452 8.413a2.405 2.405 0 0 1 2.407-2.404 2.405 2.405 0 0 1 2.407 2.404 2.408 2.408 0 0 1-4.814 0zm1.203 0a1.203 1.203 0 1 0 2.406 0 1.203 1.203 0 0 0-2.406 0zM2.827 24.66a.601.601 0 0 1 1.204 0v3.005a.601.601 0 0 1-1.204 0zm1.204 5.41v.6a.601.601 0 0 1-1.204 0v-.6a.601.601 0 0 1 1.204 0zm28.925-5.032a.602.602 0 0 1 1.117.447 8.234 8.234 0 0 0-.167 5.662l.179.535a.6.6 0 0 1-1.142.38l-.179-.535a9.437 9.437 0 0 1 .191-6.489zm.154-13.221a.6.6 0 1 1-1.117.446l-.24-.601a.6.6 0 1 1 1.116-.446zm-.962-2.404a.6.6 0 1 1-1.117.446l-.482-1.202a.6.6 0 1 1 1.118-.446z"/></g></g></svg>