<svg xmlns="http://www.w3.org/2000/svg" width="40" height="29" viewBox="0 0 40 29"><g><g><path fill="#fc9042" d="M38.86 7.88a.677.677 0 0 1-.07 1.274L11.831 17.24a.678.678 0 0 1-.538-.064L.345 10.753a.679.679 0 0 1 .164-1.239L20.98 3.886h.003c.135-.03 3.31-.737 4.409-3.067a.677.677 0 0 1 1.094-.19c.032.033 3.257 3.257 5.753 4.445zm-2.261.515l-4.916-2.083c-2.056-.977-4.42-3.074-5.528-4.115-1.627 2.321-4.715 2.98-4.859 3.009L2.42 10.397l9.305 5.459zm1.802 2.174a.678.678 0 1 1 .39 1.3L11.547 20.04.345 13.468a.678.678 0 1 1 .687-1.17l10.693 6.273zM11.725 21.285l26.676-8a.679.679 0 0 1 .39 1.299l-27.243 8.171L.345 16.183a.679.679 0 0 1 .687-1.17zM38.401 16a.678.678 0 1 1 .39 1.3l-27.243 8.17L.345 18.899a.678.678 0 0 1 .687-1.17L11.725 24zM11.725 26.715l26.676-8.002a.678.678 0 1 1 .39 1.3l-27.243 8.171L.345 21.612a.678.678 0 0 1 .687-1.17z"/></g></g></svg>