<svg xmlns="http://www.w3.org/2000/svg" width="37" height="38" viewBox="0 0 37 38"><g><g><path fill="#fc9042" d="M12.277 15.979v20.887c0 .34-.275.615-.614.615H.604a.614.614 0 0 1-.614-.615V15.98a4.3 4.3 0 0 1 3.222-4.164.615.615 0 0 0 .464-.59v-9.99c0-.34.275-.615.614-.615h3.687c.339 0 .614.275.614.614v9.99c.002.28.192.523.463.591a4.3 4.3 0 0 1 3.223 4.164zM4.905 3.077h2.457V1.85H4.905zm6.143 17.816h-9.83v8.601h9.83zm0 15.359v-5.53h-9.83v5.53zm0-20.273c0-1.4-.947-2.622-2.302-2.973a1.843 1.843 0 0 1-1.384-1.782V4.306H4.905v6.918a1.843 1.843 0 0 1-1.385 1.78A3.071 3.071 0 0 0 1.22 15.98v3.686h9.83zm11.313-1.49a10.44 10.44 0 0 1 1.589 5.537v16.84c0 .34-.275.615-.615.615h-9.83a.614.614 0 0 1-.614-.615v-16.84c0-1.957.55-3.876 1.588-5.535l.085-.136a9.205 9.205 0 0 0 1.399-4.882V1.234c0-.339.275-.614.614-.614h3.686c.34 0 .615.275.615.614v8.24c0 1.726.484 3.419 1.4 4.883zM17.19 3.077h2.458V1.85h-2.457zm5.53 16.95c0-1.728-.485-3.42-1.4-4.884l-.083-.132a10.44 10.44 0 0 1-1.589-5.538V4.306h-2.457v5.167c0 1.958-.55 3.876-1.588 5.536l-.085.135a9.205 9.205 0 0 0-1.399 4.882v16.226h8.6zm-7.373 5.167a3.072 3.072 0 1 1 6.144 0 3.072 3.072 0 0 1-6.143 0zm1.23 0a1.843 1.843 0 1 0 3.686 0 1.843 1.843 0 0 0-3.687 0zM33.293 6.52a7.97 7.97 0 0 1 3.557 6.645v23.7c0 .34-.275.615-.615.615H25.178a.614.614 0 0 1-.614-.615v-23.7a7.97 7.97 0 0 1 3.556-6.645l.007-.004a.29.29 0 0 0 .123-.237V1.234c0-.339.275-.614.614-.614h3.686c.34 0 .615.275.615.614v5.047a.29.29 0 0 0 .123.237zM29.48 3.077h2.457V1.85h-2.457zm6.143 10.09a6.745 6.745 0 0 0-3-5.617l-.01-.007a1.516 1.516 0 0 1-.676-1.263V4.306h-2.457V6.28c0 .507-.254.982-.676 1.263l-.011.007a6.742 6.742 0 0 0-3 5.616v23.086h9.83zm-8.6 4.04c0-.339.275-.614.614-.614h6.143c.34 0 .615.275.615.614V33.18c0 .34-.275.615-.615.615h-6.143a.614.614 0 0 1-.614-.615zm1.228 15.359h4.915V17.822H28.25z"/></g></g></svg>