<svg xmlns="http://www.w3.org/2000/svg" width="44" height="34" viewBox="0 0 44 34"><g><g><path fill="#fc9042" d="M43.431 14.131v5.853c0 7.665-9.706 13.901-21.635 13.901C9.866 33.885.16 27.65.16 19.985V14.13C.16 6.466 9.866.23 21.796.23S43.43 6.466 43.43 14.131zm-1.442 0c0-6.858-9.059-12.438-20.193-12.438-11.135 0-20.194 5.58-20.194 12.438v5.853c0 6.859 9.059 12.438 20.194 12.438 11.134 0 20.193-5.58 20.193-12.438zm-2.866-1.98a.714.714 0 0 1 .696-.19.726.726 0 0 1 .51.517c.144.54.216 1.095.217 1.653 0 2.866-1.919 5.586-5.404 7.66a.716.716 0 0 1-.987-.261.738.738 0 0 1 .257-1.002c3.026-1.8 4.692-4.071 4.692-6.397 0-.43-.057-.858-.168-1.273a.74.74 0 0 1 .187-.707zM14.407 4.066a.723.723 0 0 1 .876.53.733.733 0 0 1-.522.89c-4.178 1.07-7.52 3.042-9.171 5.41a.715.715 0 0 1-1.004.173.739.739 0 0 1-.174-1.019c1.846-2.648 5.49-4.829 9.995-5.984zM4.655 15.405a.733.733 0 0 1-.51.896.72.72 0 0 1-.883-.517 6.48 6.48 0 0 1-.163-2.48.723.723 0 0 1 .81-.629.73.73 0 0 1 .62.821 4.896 4.896 0 0 0 .126 1.909zm3.438-1.274c0-4.27 6.019-7.615 13.703-7.615 7.683 0 13.702 3.345 13.702 7.615s-6.019 7.615-13.702 7.615c-7.684 0-13.703-3.345-13.703-7.615zm13.703 6.152c4.72 0 8.909-1.425 10.946-3.443-2.092-2.106-6.285-3.44-10.946-3.44s-8.854 1.334-10.947 3.44c2.037 2.018 6.226 3.443 10.947 3.443zm0-8.347c4.928 0 9.425 1.45 11.832 3.747.27-.472.417-1.006.428-1.552 0-3.334-5.615-6.152-12.26-6.152-6.646 0-12.26 2.818-12.26 6.152.01.546.157 1.08.428 1.552 2.406-2.297 6.903-3.747 11.832-3.747z"/></g></g></svg>