<svg xmlns="http://www.w3.org/2000/svg" width="16" height="37" viewBox="0 0 16 37"><g><g><path fill="#fc9042" d="M15 22.566c.599.459.98 1.174.98 1.976a2.5 2.5 0 0 1-1.09 2.046 2.751 2.751 0 0 1 1.063 2.188v4.516c0 1.537-1.235 2.823-2.797 2.823h-2.869v-.047c-.477.361-1.074.611-1.721.611H7.418c-.647 0-1.243-.25-1.72-.61v.046h-2.87c-1.561 0-2.868-1.286-2.868-2.823v-4.516c0-.886.44-1.677 1.097-2.188a2.477 2.477 0 0 1-1.063-2.046c0-.802.383-1.517.981-1.976a2.492 2.492 0 0 1-.988-1.976c0-.844.418-1.592 1.071-2.046-.657-.511-1.098-1.301-1.098-2.188v-5.26L5.179 4.5H3.976V.62h7.96v3.881h-1.13l5.147 6.595v5.26c0 .886-.406 1.677-1.064 2.188.653.454 1.097 1.202 1.097 2.046A2.49 2.49 0 0 1 15 22.566zM5.052 1.678v1.765h5.809V1.678zm4.396 2.823H6.536l-4.91 6.28h12.732zm5.465 20.076a1.46 1.46 0 0 0-1.47-1.447h-1.435v-1.058h1.435c.81 0 1.47-.649 1.47-1.447a1.46 1.46 0 0 0-1.47-1.446h-1.435V18.12h1.148c.969 0 1.721-.81 1.721-1.764V11.84H1.036v4.516c0 .954.824 1.764 1.793 1.764h5.737v1.059H2.542c-.81 0-1.47.649-1.47 1.446 0 .798.66 1.447 1.47 1.447h6.024v1.059H2.542c-.81 0-1.47.648-1.47 1.446 0 .798.66 1.447 1.47 1.447h6.024v1.058H2.829c-.97 0-1.793.74-1.793 1.694v4.516c0 .953.824 1.764 1.793 1.764h2.017c-.167-.423-.26-.784-.26-1.2H5.66c0 .954.789 1.765 1.757 1.765h1.148c.969 0 1.757-.811 1.757-1.764h1.076c0 .415-.094.776-.26 1.2h2.017c.969 0 1.721-.812 1.721-1.765v-4.516c0-.954-.752-1.694-1.721-1.694h-1.148v-1.058h1.435c.81 0 1.47-.65 1.47-1.447zM3.976 8.523h1.148v1.059H3.976zm2.295-.07H5.124V7.394H6.27zm3.443 13.619h1.147v1.058H9.714zm1.147-2.893H9.714V18.12h1.147zm-1.147 6.845h1.147v1.058H9.714z"/></g></g></svg>