<svg xmlns="http://www.w3.org/2000/svg" width="36" height="38" viewBox="0 0 36 38"><g><g><path fill="#fc9042" d="M35.142 3.995c.06.093.093.2.096.311v29.489a.598.598 0 0 1-.096.31l.009.006-1.824 3.072a.606.606 0 0 1-.52.298H20.648a.606.606 0 0 1-.521-.298l-1.824-3.072.009-.006a.598.598 0 0 1-.096-.31V4.306a.603.603 0 0 1 .096-.31l-.01-.006L20.129.918a.606.606 0 0 1 .52-.298h12.158c.214 0 .412.113.521.298l1.824 3.072zm-14.15 32.257h11.47l1.094-1.843H19.898zm6.971-12.891c-.33 3.715 2.383 6.997 6.06 7.33V17.238c-3.22.293-5.771 2.87-6.06 6.124zm-1.217 1.205c-.33-4.394 2.928-8.225 7.276-8.557V7.992h-3.04c-1.342 0-2.43 1.1-2.43 2.457v4.915c-.003 2.035-1.635 3.684-3.648 3.686-1.343 0-2.432 1.1-2.432 2.458v6.143c-.003 1.797-1.287 3.33-3.04 3.631v1.898h14.59v-1.26c-3.89-.297-6.982-3.422-7.276-7.354zm7.276-17.803V4.92H26.12V3.692h7.436l-1.094-1.843h-11.47l-1.094 1.843h2.574V4.92h-3.04v25.101a2.453 2.453 0 0 0 1.824-2.37v-6.143c.002-2.035 1.634-3.684 3.648-3.686 1.343 0 2.431-1.1 2.431-2.458V10.45c.002-2.034 1.634-3.683 3.648-3.686zM16.906 13.21c.06.093.092.2.095.311v20.274a.598.598 0 0 1-.096.31l.01.006-1.825 3.072a.606.606 0 0 1-.52.298H2.412a.606.606 0 0 1-.521-.298L.067 34.11l.009-.006a.598.598 0 0 1-.096-.31V13.52a.598.598 0 0 1 .096-.31l-.009-.006 1.824-3.072a.606.606 0 0 1 .52-.298h1.715l-.19-1.153a2.2 2.2 0 0 1 0-.714A2.155 2.155 0 0 1 6.411 6.18a2.173 2.173 0 0 1 1.77 2.503l-.19 1.153h6.578c.213 0 .41.113.52.298l1.824 3.072zM6.71 7.653a.96.96 0 0 0-1.367.063.953.953 0 0 0-.21.767l.224 1.352H6.76l.224-1.352a.952.952 0 0 0-.21-.767.954.954 0 0 0-.063-.063zM2.756 36.252h11.47l1.094-1.843H1.662zm8.812-11.054c-.334 2.69 1.555 5.145 4.217 5.483v-9.745c-2.204.279-3.94 2.034-4.217 4.262zm4.217-5.502v-2.489h-3.04c-1.342 0-2.43 1.1-2.43 2.458v.614c-.003 2.035-1.634 3.684-3.648 3.686-1.343 0-2.432 1.1-2.432 2.457v1.23c-.003 1.796-1.286 3.329-3.04 3.63v1.898h14.59v-1.259c-2.877-.291-5.152-2.591-5.441-5.499-.335-3.376 2.1-6.387 5.441-6.726zm0-3.717v-1.843H9.098v-1.23h6.222l-1.095-1.842H2.755l-1.093 1.843h1.965v1.229H1.196V30.02a2.453 2.453 0 0 0 1.823-2.37v-1.229c.003-2.035 1.634-3.684 3.648-3.686 1.343 0 2.431-1.1 2.431-2.457v-.614c.003-2.035 1.634-3.684 3.648-3.686z"/></g></g></svg>