<svg xmlns="http://www.w3.org/2000/svg" width="26" height="25" viewBox="0 0 26 25"><g><g><path fill="#fff" d="M18.778 8.824c0 3.248-2.587 5.882-5.778 5.882-3.191 0-5.778-2.634-5.778-5.882C7.222 5.574 9.81 2.94 13 2.94c3.191 0 5.778 2.634 5.778 5.883zm4.333 14.705c0 .813.647 1.471 1.445 1.471.797 0 1.444-.658 1.444-1.47 0-4.374-2.084-8.252-5.295-10.662a8.913 8.913 0 0 0 .962-4.044C21.667 3.95 17.787 0 13 0 8.214 0 4.333 3.95 4.333 8.824c0 1.457.348 2.832.962 4.044A13.294 13.294 0 0 0 0 23.529C0 24.342.647 25 1.444 25c.798 0 1.445-.658 1.445-1.47a10.34 10.34 0 0 1 4.141-8.31 8.556 8.556 0 0 0 11.94 0 10.34 10.34 0 0 1 4.141 8.31z"/></g></g></svg>