<svg width="20" height="20" viewBox="0 0 20 20" fill="none" xmlns="http://www.w3.org/2000/svg">
<path d="M9.13589 2.48359C9.52162 1.82132 10.4784 1.82132 10.8641 2.48359L13.011 6.16962C13.1523 6.41222 13.3891 6.58425 13.6635 6.64367L17.8326 7.54646C18.5816 7.70867 18.8773 8.6186 18.3666 9.1901L15.5244 12.371C15.3374 12.5803 15.2469 12.8587 15.2752 13.138L15.7049 17.382C15.7821 18.1445 15.0081 18.7069 14.3067 18.3978L10.4032 16.6777C10.1463 16.5645 9.85366 16.5645 9.59675 16.6777L5.69326 18.3978C4.99192 18.7069 4.21789 18.1445 4.2951 17.382L4.7248 13.138C4.75308 12.8587 4.66264 12.5803 4.47558 12.371L1.63339 9.1901C1.12273 8.6186 1.41838 7.70867 2.16744 7.54646L6.3365 6.64367C6.61089 6.58425 6.84767 6.41222 6.98897 6.16962L9.13589 2.48359Z" stroke="#B8BFB3" stroke-width="2"/>
</svg>
